inDegrees=no
num_controls=7
num_derivatives=13
num_iterations=144
num_multipliers=7
num_parameters=0
num_slacks=7
num_states=26
objective=5.111584
objective_accelerations=0.545432
objective_balance=0.033194
objective_effort=0.314521
objective_height=4.196921
objective_ligament=0.021515
solver_duration=1589.727363
status=Solve_Succeeded
success=true
DataType=double
version=3
OpenSimVersion=4.4-2022-07-23-0e9fedc
endheader
time	/jointset/ground_pelvis/pelvis_tilt/value	/jointset/ground_pelvis/pelvis_tx/value	/jointset/ground_pelvis/pelvis_ty/value	/jointset/hip_l/hip_flexion_l/value	/jointset/hip_l/hip_adduction_l/value	/jointset/hip_l/hip_rotation_l/value	/jointset/back/lumbar_extension/value	/jointset/patellofemoral_l/patellar_flexion_l/value	/jointset/knee_l/knee_flexion_l/value	/jointset/knee_l/knee_adduction_l/value	/jointset/knee_l/knee_rotation_l/value	/jointset/ankle_l/ankle_angle_l/value	/jointset/subtalar_l/subtalar_angle_l/value	/jointset/ground_pelvis/pelvis_tilt/speed	/jointset/ground_pelvis/pelvis_tx/speed	/jointset/ground_pelvis/pelvis_ty/speed	/jointset/hip_l/hip_flexion_l/speed	/jointset/hip_l/hip_adduction_l/speed	/jointset/hip_l/hip_rotation_l/speed	/jointset/back/lumbar_extension/speed	/jointset/patellofemoral_l/patellar_flexion_l/speed	/jointset/knee_l/knee_flexion_l/speed	/jointset/knee_l/knee_adduction_l/speed	/jointset/knee_l/knee_rotation_l/speed	/jointset/ankle_l/ankle_angle_l/speed	/jointset/subtalar_l/subtalar_angle_l/speed	/forceset/tau_hip_flexion_l	/forceset/tau_hip_adduction_l	/forceset/tau_hip_rotation_l	/forceset/tau_knee_flexion_l	/forceset/tau_ankle_angle_l	/forceset/tau_subtalar_angle_l	/forceset/tau_lumbar_extension	lambda_cid13_p0	lambda_cid13_p1	lambda_cid13_p2	lambda_cid13_p3	lambda_cid13_p4	lambda_cid13_p5	lambda_cid14_p0	/jointset/ground_pelvis/pelvis_tilt/accel	/jointset/ground_pelvis/pelvis_tx/accel	/jointset/ground_pelvis/pelvis_ty/accel	/jointset/hip_l/hip_flexion_l/accel	/jointset/hip_l/hip_adduction_l/accel	/jointset/hip_l/hip_rotation_l/accel	/jointset/back/lumbar_extension/accel	/jointset/patellofemoral_l/patellar_flexion_l/accel	/jointset/knee_l/knee_flexion_l/accel	/jointset/knee_l/knee_adduction_l/accel	/jointset/knee_l/knee_rotation_l/accel	/jointset/ankle_l/ankle_angle_l/accel	/jointset/subtalar_l/subtalar_angle_l/accel	gamma_cid13_p0	gamma_cid13_p1	gamma_cid13_p2	gamma_cid13_p3	gamma_cid13_p4	gamma_cid13_p5	gamma_cid14_p0
1.5	-0.4553214909457033	-0.07888504162273385	0.7763594857470298	1.127359903606487	-0.4200617762035596	-0.2889957046167914	-0.2280397548059589	0.5786901361879957	0.5786901361876451	-0.1745048661433294	-0.1469665435077565	-0.05988051803269711	-0.09873129888679817	0.9401555144534923	0.4226550084246297	0.4566903239883068	-2.480771602990101	0.2242005987011075	-0.5037539315493229	0.3059440445249791	-1.40729805395217	-1.407298053952387	0.0002098955515744467	0.127947498828642	0.07400878415645201	0.2743544509881573	-0.2138640592539243	0.01116810790635151	7.227754690925275e-05	-0.1544716878470882	0.1027439867698146	0.05806712268462415	0.1935785832101514	-0.5614204825607855	-27.33095235428753	6.546537060885944	-10.04905055604883	-524.006797717948	-68.83251876769135	-35.08801907087659	0.6665768208989653	0.7771801345191591	-0.3561605178951081	-1.517550330038407	0.4031029353219567	-0.06463479129186538	1.528298023583993	-0.9266760159399992	-0.9266760159400111	0.01925783735693536	0.2435326515615093	0.06415303952405542	0.4989873452799295	-5.218589644491026e-08	5.367456021184142e-07	2.404583782822571e-08	2.042925452395919e-07	1.577676985734201e-07	-1.954852901845867e-07	7.73574145719817e-08
1.51	-0.445886998675449	-0.07462006091675753	0.7809076535231818	1.102478417741021	-0.4178005466310731	-0.2940369333255254	-0.2249051920254045	0.5645729328667638	0.564572932866121	-0.1745027028279582	-0.145676422371665	-0.05913730175325291	-0.09596376628397198	0.9466046936477881	0.4302872799892509	0.4528460081995693	-2.495178299495103	0.2280167758195581	-0.5044276711428579	0.3209384765878622	-1.415944554338968	-1.415944554339252	0.0002200684556728739	0.1300633236650278	0.07463273018182268	0.2791244992339808	-0.2066194330773098	0.01041363796304598	5.532360516463933e-05	-0.1527599314063278	0.1002885334961463	0.05631799048309771	0.1879214618143237	-1.107791874810533	-26.53906695328883	6.492739312816941	-9.52482193595805	-520.1768416849998	-68.81247058331492	-35.5801436404625	0.613337032152744	0.7482151497110588	-0.4131161886245446	-1.350151655218698	0.3664853506527583	-0.05904299793104269	1.480510548238152	-0.8039441152959281	-0.8039441153061235	-0.008392017185898448	0.1935594135005548	0.06125022478928845	0.4617848694595293	-5.579441754748026e-08	5.618639411340212e-07	3.023636957824579e-08	2.093788898519524e-07	1.670856134986767e-07	-1.887144631535658e-07	7.731682653256391e-08
1.52	-0.4363921649005457	-0.07028036459867952	0.7854144683255938	1.077463280441645	-0.4155020332372847	-0.29908295932107	-0.2216215859740933	0.5503752031285659	0.5503752031276948	-0.1745004955903413	-0.1443655525845539	-0.05838789904539497	-0.09314937893764245	0.9522238153803601	0.4375981308449686	0.4484197292404572	-2.507501889779625	0.2316573629598109	-0.5047133889182641	0.3357526986746391	-1.423403337335607	-1.423403337335959	0.0002186799948923462	0.1320972290543478	0.07524606983701922	0.2837253996888429	-0.1993748069003514	0.00965916801990635	3.836966394881136e-05	-0.151048174965557	0.09783308022253606	0.0545688582817648	0.1822643404187277	-1.665139380818588	-25.74584011255748	6.439390710914614	-8.968073864209652	-516.4837779900214	-68.81438520032945	-36.05278591071767	0.5005653285545201	0.7128959927382892	-0.4725531519700514	-1.100929085942334	0.36798493968228	0.01296957233390199	1.492256028362925	-0.6891325379082459	-0.6891325379082129	0.01694556438108923	0.2271487621483286	0.06203176548904109	0.4651577870875013	-5.915188748838758e-08	5.84602238591063e-07	3.647826453254483e-08	2.132034809525236e-07	1.765055160671536e-07	-1.810218055158601e-07	7.682983809900845e-08
1.53	-0.4268452847796821	-0.06586925632308499	0.7898741573636857	1.052335366891298	-0.4131680071252014	-0.304130024320124	-0.2181909601777797	0.5361088929111507	0.5361088929104073	-0.1744983172787917	-0.1430348535043099	-0.05763242153454433	-0.0902898503323437	0.9570087614615197	0.4445599631717156	0.4434247351053846	-2.517718435012107	0.235116543483379	-0.5046389989753673	0.3503251483413043	-1.429649762463666	-1.429649762464073	0.0002183016237018679	0.1340240798754157	0.07584742558782498	0.2881494794181529	-0.1921005115499967	0.008809330508462733	6.636524072200887e-06	-0.1492572868663054	0.09532184877474112	0.05275826038021706	0.1765308205232919	-2.243063469472174	-24.92369633397699	6.383008675622061	-8.363117519746767	-512.778875148963	-68.76542864651623	-36.50334618306223	0.4459247219554686	0.678336090341461	-0.5269358082541784	-0.9276750576152558	0.3300709289781126	0.01384530775477024	1.432642599184737	-0.5610710180974482	-0.5610710181058706	-0.008208666269361689	0.1726401070283997	0.05888253467513597	0.4263058144264772	-6.224261557002832e-08	6.048117418921293e-07	4.277473289139025e-08	2.156874589468186e-07	1.860337805065519e-07	-1.723497028585518e-07	7.586854924668172e-08
1.54	-0.4172548621031775	-0.06139042787668319	0.794281103807631	1.027116156325502	-0.4108003519438236	-0.3091745110992467	-0.2146160292521206	0.5217863837388582	0.5217863837382809	-0.1744960785765969	-0.1416854485429322	-0.05687099145522104	-0.08738702638003716	0.9609323265049948	0.451142165006422	0.4378712104112429	-2.525761292873162	0.2383831768182971	-0.5041977449329867	0.3646137245426107	-1.434643128305426	-1.434643128305888	0.0002307581164999723	0.1358384052941734	0.07643658353058017	0.2923844690904087	-0.1848262161995406	0.007959492997058129	-2.509661547033897e-05	-0.1474663987670607	0.09281061732696645	0.05094766247871561	0.1707973006279251	-2.832573996551654	-24.10005667900967	6.326996840102916	-7.721173101448596	-509.2143247273811	-68.73827904107034	-36.92932082913919	0.3282891210179675	0.6369698943299903	-0.58425926378388	-0.6661916116566222	0.3294755019521868	0.08634239223067315	1.435481335291389	-0.4385206806484193	-0.4385206806484077	0.01951253717873773	0.2046436816862924	0.05959220387870844	0.4273397756764918	-5.876223798880523e-08	6.071693219114436e-07	2.753808558402957e-08	2.066610676232903e-07	2.059125232235901e-07	-1.655080630352763e-07	7.578516084199418e-08
1.55	-0.4076295529776431	-0.05684774999345134	0.7986298032066943	1.001827330894637	-0.4084010212016826	-0.3142126395785731	-0.2108998265857817	0.5074200527709083	0.507420052770547	-0.1744938238718839	-0.1403182996889544	-0.05610381340994683	-0.0844428747731923	0.9639789918558476	0.4573225779060073	0.4317810133488347	-2.53162932492445	0.2414481350518812	-0.5033682925339877	0.3785644249887136	-1.438405916342059	-1.438405916342498	0.0002223632188395801	0.1375703530245304	0.07699864324214414	0.2964117428576213	-0.1774969028767115	0.006985209473580507	-9.490240989686946e-05	-0.1457947347621945	0.09053701027421854	0.04903380550580339	0.1649853982834357	-3.355782344895857	-23.246730386092	6.270306706637884	-7.104489210199281	-505.7382753148724	-68.6406005787788	-37.33149564517861	0.2702623763425349	0.5979863252407035	-0.6344972582475713	-0.4909524076609313	0.2896752540456856	0.09027980372510465	1.365506839245561	-0.3126009696215694	-0.3126009696182171	-0.01057765324247852	0.1542685427012362	0.05445089320708193	0.3852188425695292	-4.77108038829786e-08	5.889583816278709e-07	-1.250845586048027e-08	1.843727290422705e-07	2.377168169996478e-07	-1.607754347381691e-07	7.671326643132567e-08
